# xmcd
#
# Track frame offsets: 
#        150
#        18300
#        38068
#        50581
#        67108
#        82856
#        100704
#        118097
#        136072
#        158822
#        174628
#
# Disc length: 2511 seconds
#
# Revision: 0
# Processed by: cddbd v1.5.2PL0 Copyright (c) Steve Scherf et al.
# Submitted via: ExactAudioCopy v0.99pb5
#
DISCID=8709cd0b
DTITLE=Rodney Hayden - Down the Road
DYEAR=2007
DGENRE=Country
TTITLE0=Down the Road
TTITLE1=It Goes by to Fast
TTITLE2=Whoever Wrote This Song
TTITLE3=Nuevo Laredo
TTITLE4=Lonely Day
TTITLE5=I'll Ride Again
TTITLE6=Midnight in Memphis
TTITLE7=After the Sun Goes Down
TTITLE8=Silverado Boys
TTITLE9=These Arms
TTITLE10=It's Been A While
EXTD=
EXTT0=
EXTT1=
EXTT2=
EXTT3=
EXTT4=
EXTT5=
EXTT6=
EXTT7=
EXTT8=
EXTT9=
EXTT10=
PLAYORDER=
